# xmcd
#
# Track frame offsets: 
#        150
#        10553
#        18520
#        29923
#        40506
#        50582
#        61601
#        72229
#        82238
#        94850
#        105286
#        118116
#
# Disc length: 1695 seconds
#
# Revision: 0
# Processed by: cddbd v1.5.2PL0 Copyright (c) Steve Scherf et al.
# Submitted via: ExactAudioCopy v0.95b4
#
DISCID=94069d0c
DTITLE=Ray Smith - Travelin' With Ray
DYEAR=1960
DGENRE=Country
TTITLE0=Rockin' Little Angel
TTITLE1=Rebound
TTITLE2=Baby, Just Because
TTITLE3=Put Your Arms Around Me, Honey
TTITLE4=Speak Low
TTITLE5=Makes Me Feel Good
TTITLE6=One Wonderful Love
TTITLE7=Blonde Hair, Blue Eyes
TTITLE8=I'll Be Coming Home
TTITLE9=Little Miss Blue
TTITLE10=Maria Elena
TTITLE11=That's All Right
EXTD=
EXTT0=
EXTT1=
EXTT2=
EXTT3=
EXTT4=
EXTT5=
EXTT6=
EXTT7=
EXTT8=
EXTT9=
EXTT10=
EXTT11=
PLAYORDER=
